<?xml version="1.0" encoding="utf-8"?>
<!-- Generator: Adobe Illustrator 24.3.0, SVG Export Plug-In . SVG Version: 6.00 Build 0)  -->
<svg version="1.1" id="图层_1" xmlns="http://www.w3.org/2000/svg" xmlns:xlink="http://www.w3.org/1999/xlink" x="0px" y="0px"
	 viewBox="0 0 1080 1080" style="enable-background:new 0 0 1080 1080;" xml:space="preserve">
<style type="text/css">
	.st0{display:none;fill:none;stroke:#333;stroke-miterlimit:10;}
	.st1{display:none;}
	.st2{display:inline;fill:none;stroke:#333;stroke-width:20;stroke-miterlimit:10;}
	.st3{display:inline;fill:none;stroke:#333;stroke-width:50;stroke-miterlimit:10;}
	.st4{fill:none;stroke:#333;stroke-width:40;stroke-linecap:round;stroke-miterlimit:10;}
	.st5{fill:none;stroke:#333;stroke-width:50;stroke-linecap:round;stroke-miterlimit:10;}
	.st6{fill:none;stroke:#333;stroke-width:60;stroke-linecap:round;stroke-miterlimit:10;}
</style>
<line class="st0" x1="-163.7" y1="540" x2="1243.7" y2="540"/>
<line class="st0" x1="540" y1="-100.12" x2="540" y2="1180.12"/>
<g class="st1">
	<path class="st2" d="M477.49,431.73C440.13,453.35,415,493.74,415,540c0,69.04,55.96,125,125,125s125-55.96,125-125
		c0-46.26-25.13-86.65-62.49-108.27"/>
	<path class="st2" d="M713.23,439.99c-17.56-30.35-42.86-55.66-73.21-73.22"/>
	<path class="st2" d="M713.23,640.01C678.65,699.78,614.02,740,540,740c-110.46,0-200-89.54-200-200
		c0-74.02,40.22-138.65,99.99-173.23"/>
	<path class="st2" d="M778.19,677.52C730.64,759.7,641.78,815,540,815c-151.88,0-275-123.12-275-275
		c0-101.78,55.3-190.64,137.48-238.19"/>
	<path class="st2" d="M677.52,301.81c41.73,24.15,76.52,58.94,100.67,100.67"/>
	<path class="st2" d="M494.31,192.96C322.6,215.35,190,362.19,190,540c0,193.3,156.7,350,350,350
		c129.54,0,242.63-70.37,303.16-174.97"/>
	<path class="st2" d="M585.69,192.97c110.14,14.36,204.18,79.91,257.47,172.01"/>
</g>
<g class="st1">
	<circle class="st3" cx="540" cy="540" r="50"/>
	<path class="st3" d="M477.49,431.73C495.88,421.09,517.23,415,540,415s44.12,6.09,62.51,16.73"/>
	<path class="st3" d="M439.99,366.77C469.41,349.75,503.56,340,540,340s70.59,9.75,100.01,26.77"/>
	<path class="st3" d="M402.48,301.81C442.94,278.4,489.9,265,540,265s97.06,13.4,137.52,36.81"/>
	<path class="st3" d="M843.16,364.97C872.95,416.46,890,476.24,890,540s-17.05,123.54-46.84,175.03"/>
	<path class="st3" d="M713.23,640.01C730.25,610.59,740,576.44,740,540c0-36.44-9.75-70.59-26.77-100.01"/>
	<path class="st3" d="M778.19,677.52C801.6,637.06,815,590.1,815,540c0-50.1-13.41-97.06-36.81-137.52"/>
	<path class="st3" d="M494.31,192.96c14.95-1.95,30.2-2.96,45.69-2.96c15.49,0,30.73,1.02,45.69,2.97"/>
</g>
<g>
	<g>
		<g>
			<line class="st4" x1="540" y1="563.19" x2="495.81" y2="607.39"/>
			<line class="st4" x1="584.19" y1="519" x2="540" y2="563.19"/>
			<line class="st4" x1="495.81" y1="519" x2="584.19" y2="519"/>
			<line class="st4" x1="495.81" y1="607.39" x2="584.19" y2="607.39"/>
		</g>
		<circle cx="537.9" cy="454" r="25"/>
	</g>
	<path class="st4" d="M433.93,646.07C461.08,673.21,498.58,690,540,690c82.84,0,150-67.16,150-150s-67.16-150-150-150
		c-41.42,0-78.92,16.79-106.07,43.93"/>
	<path class="st5" d="M380.9,380.9C421.62,340.18,477.87,315,540,315c124.26,0,225,100.74,225,225S664.26,765,540,765
		c-62.13,0-118.38-25.18-159.1-65.9"/>
	<path class="st6" d="M320.8,320.8C376.9,264.7,454.4,230,540,230c171.21,0,310,138.79,310,310S711.21,850,540,850
		c-85.6,0-163.1-34.7-219.2-90.8"/>
</g>
</svg>
